PathFileType	4	(X/Y/Z)	D:\TRACE\v60_Jaco2_6-2-23\JustBodyDRS_Motion2_6-platform.trc
DataRate	CameraRate	NumFrames	NumMarkers	Units	OrigDataRate	OrigDataStartFrame	OrigNumFrames
100.00	100.00	      66	5	mm	100.00	5899	      6741
Frame#	Time	Left_Front			Right_Front			Left_Aft			Right_Aft			Post			
		X1	Y1	Z1	X2	Y2	Z2	X3	Y3	Z3	X4	Y4	Z4	X5	Y5	Z5	

5899	58.980	-809.42285	34.88241	-632.10913	760.74280	35.81906	-637.08453	-717.64984	-10.36298	502.10709	724.83466	-11.94518	511.73495	-22.61080	1345.07458	-901.75214	
5900	58.990	-810.52948	33.38600	-632.54834	759.47253	34.73566	-637.65369	-718.53021	-9.27825	501.97583	723.48883	-10.99506	511.34885	-24.53675	1343.20996	-905.03149	
5901	59.000	-811.60327	31.77224	-632.72644	758.59698	33.32373	-637.75348	-719.55243	-8.49682	501.65735	722.59930	-9.83913	511.23346	-25.60669	1341.44470	-908.48096	
5902	59.010	-812.81744	30.56706	-632.91870	757.28357	31.83655	-638.26276	-720.87817	-7.45362	501.34354	721.31549	-8.87181	511.09708	-26.38294	1339.78540	-912.44598	
5903	59.020	-814.09650	29.54765	-633.72333	756.15967	30.54819	-638.76428	-721.88617	-6.72974	501.03619	720.18719	-7.97053	510.68158	-27.14827	1337.62048	-916.62762	
5904	59.030	-815.07166	28.02299	-633.77960	755.15198	29.26402	-638.89655	-723.30096	-5.52596	500.78885	718.93494	-7.13946	510.39276	-28.56249	1335.83606	-920.66113	
5905	59.040	-816.15204	26.47638	-634.20935	753.99420	27.72765	-639.11017	-724.24591	-4.84890	500.52393	717.82941	-6.12918	510.10938	-29.08726	1333.91870	-924.57788	
5906	59.050	-817.43756	25.58301	-634.62219	752.58411	26.44124	-639.89362	-725.61676	-3.57191	500.19086	717.11304	-4.94753	509.83929	-30.14659	1332.09167	-928.08124	
5907	59.060	-818.44965	23.94680	-634.86664	751.81000	25.26390	-640.08435	-726.50317	-2.73567	500.01349	715.58496	-4.01149	509.81540	-31.92738	1330.22156	-931.51019	
5908	59.070	-819.52765	22.66794	-635.31091	750.56403	23.67609	-640.42792	-727.58887	-1.62568	499.47736	714.95166	-3.01549	509.07733	-33.27896	1328.17493	-934.47290	
5909	59.080	-820.68054	21.18602	-635.79138	749.34869	22.20678	-640.82025	-728.87830	-0.76290	499.39984	713.29407	-2.06900	508.88486	-34.02674	1325.78406	-937.36450	
5910	59.090	-821.77698	19.53721	-636.10895	748.40076	20.77028	-641.14417	-729.96863	0.36521	499.00546	712.44202	-1.03860	508.51288	-35.12999	1323.79004	-939.90680	
5911	59.100	-823.03363	18.21035	-636.27704	747.27106	19.43978	-641.42084	-731.16010	1.39868	498.69995	711.26740	0.10869	508.24783	-36.07146	1321.58850	-942.34601	
5912	59.110	-823.99457	17.01340	-636.89636	746.20172	18.03304	-641.95258	-732.22614	2.46848	498.36475	710.33521	0.99920	508.04306	-37.50517	1319.63867	-944.76660	
5913	59.120	-824.87549	15.35443	-637.16418	745.19696	16.51688	-642.05945	-733.22522	3.64417	498.14874	709.33795	2.02783	507.56451	-38.64943	1317.56946	-946.91595	
5914	59.130	-826.01947	14.00952	-637.48090	743.98462	15.28193	-642.44019	-734.80133	4.94919	497.79062	707.68964	2.92065	507.30026	-39.77794	1315.65210	-949.24725	
5915	59.140	-827.23840	12.59833	-637.73761	743.24744	13.92386	-642.81390	-736.13629	6.08908	497.44528	707.01605	3.96091	506.87772	-40.64965	1313.33569	-952.00684	
5916	59.150	-828.34656	11.26368	-637.95831	742.02258	12.31423	-643.15820	-736.02893	5.98593	496.96591	705.37683	4.59343	506.61423	-41.54232	1311.29517	-955.16815	
5917	59.160	-829.19409	9.90689	-638.41888	740.93298	11.01116	-643.40594	-737.23389	6.96167	496.52405	704.50000	5.46396	505.98096	-42.79331	1309.36353	-958.74811	
5918	59.170	-830.14044	9.10723	-638.82263	739.85449	9.83060	-643.96600	-737.64124	7.12983	496.41986	702.09979	5.53067	504.93799	-44.12341	1307.31201	-962.11420	
5919	59.180	-831.19543	7.60279	-639.11957	738.85565	8.53003	-644.21179	-738.95020	8.60871	495.89709	703.66290	8.69147	506.13992	-44.92994	1305.12476	-965.67712	
5920	59.190	-832.51678	5.80351	-639.38489	737.86151	6.41299	-644.59845	-740.11029	9.78480	495.66916	702.62512	9.68308	505.47049	-46.39644	1302.99377	-969.66077	
5921	59.200	-833.29639	3.72741	-639.86621	737.07336	4.86568	-644.87933	-740.95850	10.67221	495.28674	701.26117	10.39178	505.08099	-46.98967	1300.67908	-972.76105	
5922	59.210	-834.22723	2.57975	-640.18158	735.62225	3.20259	-645.62201	-742.03003	11.83401	494.95868	699.92163	11.16691	504.09631	-47.90749	1298.59094	-976.34363	
5923	59.220	-835.23517	1.23254	-640.57379	734.60315	1.94920	-645.84698	-743.22778	12.98048	494.42978	699.44983	12.36380	504.17093	-48.55246	1296.35840	-979.77216	
5924	59.230	-835.80731	0.37423	-641.24097	733.65057	0.44859	-646.13068	-744.02484	13.82875	494.30795	697.94617	13.33748	503.90973	-49.67000	1294.39758	-983.12933	
5925	59.240	-836.87042	-1.28101	-641.02545	732.85358	-0.73207	-646.44647	-744.87689	14.92671	493.90582	697.32159	14.37645	503.64783	-50.47609	1292.19385	-986.08240	
5926	59.250	-838.09058	-2.68735	-641.41187	731.94006	-2.20331	-646.64758	-746.06854	16.20721	493.67416	696.48370	15.52601	503.50165	-51.59058	1290.39368	-989.13330	
5927	59.260	-838.90582	-4.59987	-641.57794	731.11749	-3.26222	-646.96210	-746.75952	16.70285	493.32614	695.32971	16.24317	503.05347	-52.32262	1288.12830	-991.88855	
5928	59.270	-839.42926	-5.67212	-641.88165	730.10913	-4.93969	-647.35663	-747.77448	17.72447	493.07886	694.67511	17.25341	502.55316	-53.30984	1286.08386	-994.47351	
5929	59.280	-840.45380	-6.58498	-642.27954	729.21045	-6.16206	-647.51367	-748.68738	18.67858	492.73465	693.87036	18.06885	502.19495	-54.27366	1284.14502	-996.96796	
5930	59.290	-841.09802	-7.91185	-642.55420	728.51538	-7.45004	-647.79364	-749.37085	19.72086	492.38425	692.92023	19.01556	501.92648	-55.27997	1282.22095	-999.57092	
5931	59.300	-841.84192	-9.92963	-642.73639	727.71417	-8.80209	-648.18909	-750.32001	20.90388	491.98990	692.45129	20.23171	501.67267	-55.93506	1279.97388	-1002.12122	
5932	59.310	-842.89142	-10.76388	-643.10083	727.13867	-9.94343	-648.29657	-750.95605	21.50992	491.57220	691.63416	21.05738	501.32709	-56.75683	1278.28369	-1004.41888	
5933	59.320	-843.62433	-12.32826	-643.45477	726.32904	-11.53396	-648.58136	-752.29535	22.94410	491.39380	690.67731	22.04125	500.86865	-57.47947	1276.04016	-1006.78284	
5934	59.330	-844.28760	-13.55321	-643.39484	725.53162	-12.84091	-648.97369	-753.03955	23.87329	491.16779	689.93091	22.89017	500.45282	-58.29314	1274.10840	-1009.25122	
5935	59.340	-844.85510	-14.69362	-643.92676	724.95081	-13.89332	-649.10120	-752.98767	23.87012	490.62564	689.45905	23.81827	500.13626	-58.62245	1271.80701	-1012.17334	
5936	59.350	-845.55511	-16.01582	-644.33496	724.20941	-15.26662	-649.59674	-753.75366	25.03517	490.30627	688.74536	24.78760	499.92841	-59.61386	1269.98779	-1015.53864	
5937	59.360	-846.06079	-17.65619	-644.39172	723.86914	-16.50528	-649.47485	-754.25494	26.01333	489.97287	687.86914	25.51342	499.33414	-60.01994	1267.70166	-1018.44250	
5938	59.370	-846.80316	-18.87079	-644.86517	722.94659	-17.83362	-650.01666	-754.71429	26.59392	489.38922	687.11639	26.42368	499.05191	-60.83115	1265.69385	-1021.77618	
5939	59.380	-847.47394	-20.13289	-644.94232	722.44946	-19.36896	-650.13904	-754.96191	26.76695	489.41745	686.83167	27.30656	498.77148	-61.11694	1263.51721	-1024.88428	
5940	59.390	-847.85046	-21.40179	-645.20746	722.02490	-20.50386	-650.42310	-755.64038	27.85237	489.03098	686.27673	28.25081	498.42801	-61.38452	1261.78711	-1027.95630	
5941	59.400	-848.57483	-22.60502	-645.23627	721.56519	-21.47235	-650.82635	-756.43115	28.83413	488.69971	685.59668	29.06893	498.15161	-62.08273	1259.71899	-1031.16064	
5942	59.410	-849.05243	-23.69213	-645.54932	720.91949	-22.74790	-651.00745	-756.89209	29.78883	488.37125	684.96344	29.81615	497.77859	-62.74753	1258.03479	-1034.01489	
5943	59.420	-849.37433	-25.04104	-645.89899	720.66876	-23.89454	-651.05859	-757.15698	30.53695	488.14880	684.52643	30.44536	497.36539	-63.42828	1256.26514	-1036.74194	
5944	59.430	-850.01514	-26.22088	-645.85754	720.03485	-25.11535	-651.43414	-757.65466	31.40283	487.78217	684.06793	31.35080	497.09103	-63.56144	1254.16809	-1039.26855	
5945	59.440	-850.11072	-27.18086	-646.30450	719.90100	-26.20799	-651.47198	-757.92828	32.07502	487.64264	684.08466	32.25841	496.89029	-63.88846	1252.54797	-1041.60034	
5946	59.450	-850.46875	-28.55840	-646.22058	719.80811	-27.48086	-651.57428	-758.20044	32.81676	487.31726	683.75989	33.08566	496.50241	-64.02545	1250.56030	-1043.86023	
5947	59.460	-850.78583	-29.65981	-646.59497	719.23969	-28.49522	-651.89429	-758.74615	33.64380	487.00491	682.96753	33.62957	496.03848	-64.54702	1248.99609	-1046.28516	
5948	59.470	-851.04504	-30.63088	-646.83246	719.17804	-29.35440	-652.15863	-758.83130	34.26282	486.71140	682.71619	34.27251	495.68808	-64.60796	1247.42151	-1048.30957	
5949	59.480	-851.17371	-31.59223	-646.99164	718.96173	-30.62132	-652.46259	-758.99365	35.09064	486.33148	682.24762	35.16958	495.54382	-65.17966	1245.55859	-1050.37061	
5950	59.490	-851.12323	-32.79075	-647.11627	718.88019	-31.74057	-652.54260	-758.93213	35.57454	486.06137	682.48639	35.77553	495.25702	-65.23527	1243.94653	-1051.80786	
5951	59.500	-851.25012	-34.25497	-647.21411	718.88574	-32.72595	-652.74908	-759.13208	36.54370	485.56808	682.39343	36.61767	495.02359	-65.15741	1242.23169	-1053.63818	
5952	59.510	-851.24359	-34.79162	-647.55133	718.71716	-33.69088	-652.97168	-758.89099	36.75289	485.58536	682.22375	37.41973	494.92035	-65.72257	1240.84998	-1055.15649	
5953	59.520	-851.13361	-35.69043	-647.74463	718.77411	-34.62978	-653.10962	-758.91663	37.42045	485.46313	682.46747	37.94449	494.29172	-65.58048	1239.31165	-1056.57007	
5954	59.530	-851.17981	-36.93167	-647.65277	718.93500	-35.61499	-653.23157	-758.78015	38.16495	485.22189	682.75256	38.77242	494.15201	-65.41594	1237.60107	-1058.38550	
5955	59.540	-851.03949	-37.93860	-647.84839	718.81653	-36.56595	-653.47070	-758.58838	38.38371	485.15115	682.61823	39.41837	494.07150	-65.55505	1236.40063	-1059.95532	
5956	59.550	-850.98718	-39.21676	-648.23645	718.72760	-37.16100	-653.74615	-759.14685	39.64691	484.30597	682.87024	40.22335	493.72971	-65.37997	1234.52783	-1061.48938	
5957	59.560	-850.80182	-39.61868	-648.56512	718.78485	-37.44573	-653.92340	-759.18829	40.42511	483.84012	682.97723	40.95433	493.65567	-65.22578	1232.99121	-1063.33105	
5958	59.570	-850.85254	-40.65281	-648.49133	719.28961	-39.38178	-653.91486	-758.91455	41.34804	483.54568	683.22150	41.58575	493.27158	-65.58529	1231.67773	-1065.55261	
5959	59.580	-850.70026	-42.09621	-648.78265	719.30908	-40.61504	-654.07336	-758.66370	42.25278	483.16925	683.65723	42.29171	493.05020	-64.99944	1230.03052	-1067.86377	
5960	59.590	-849.92218	-43.72491	-648.98950	720.02057	-41.41574	-654.19507	-758.17157	42.38968	482.89133	684.21619	43.16853	492.76022	-64.55117	1228.47119	-1069.66150	
5961	59.600	-849.84534	-44.17270	-648.97986	720.18506	-41.78831	-654.30890	-757.88483	42.84784	482.18463	684.44299	43.50069	492.65891	-63.91740	1227.04260	-1071.86755	
5962	59.610	-849.35040	-44.62916	-649.38416	720.41431	-42.77209	-654.58929	-757.49219	43.44740	482.41742	685.05212	44.20147	492.34006	-63.40296	1225.59607	-1074.41968	
5963	59.620	-849.02271	-45.00236	-649.34302	720.84888	-43.69039	-654.71814	-757.21234	43.90543	482.05109	684.89978	44.71650	492.22739	-63.71111	1224.59583	-1076.87512	
5964	59.630	-848.58893	-45.91644	-649.25720	721.16937	-44.05502	-654.69049	-757.28510	45.12872	482.46735	685.51099	45.23703	491.90457	-63.43971	1223.54016	-1079.25720	
